{"title":"Sex, Lies and Death 2011 DVDrip English (srt)subs Klam","uid":6817834,"size":1263569679,"categoryP":"video","categoryS":"movies","magnet":"?xt=urn:btih:374e86240829da961de01db097be9391dcd3b80d&amp;dn=Sex%2C+Lies+and+Death+2011+DVDrip+English+%28srt%29subs+Klam&amp;tr=udp%3A%2F%2Ftracker.openbittorrent.com%3A80&amp;tr=udp%3A%2F%2Fopen.demonii.com%3A1337&amp;tr=udp%3A%2F%2Ftracker.coppersurfer.tk%3A6969&amp;tr=udp%3A%2F%2Fexodus.desync.com%3A6969","seeders":3,"leechers":1,"uploader":"Klambake","files":-1,"time":1321288141,"description":"With: Andrea LÃƒÂ³pez, Carolina Sepulveda en Alejandra PinzÃƒÂ³n\n\nTwee onbekenden, Vivian en Andrea, ontmoeten elkaar in een bar waar ze hun verdriet aan het verdrinken zijn. Wanneer ze van elkaar horen dat hun relatie op de klippen is gelopen bedenken ze een plan om elkaar te helpen. Andrea stemt er mee in om Vivians gewelddadige man te doden. Op haar beurt zal Vivian Andrea's geliefde Gloria aanpakken, die haar belangstelling naar een andere vrouw heeft verschoven. Verblind door wraakgevoelens beginnen ze aan een missie die leidt tot verleiding, moord en een schok die ze nooit hadden kunnen voorspellen.\n\nSoft English subs (srt)\nViviana (Andrea Lopez) and Alicia (Martha Isabel BolaÃƒÂ±os) have never met, but they're about to get intimately acquainted..\n\n------------------ Dutch Friends ------------------\nYou can find my Friends at: http://www.Film-Test.nl \n------ They got my dutch subs ----- and more ------\n\nGeneral:\n\nComplete name                    : Sex, Lies and Death\\Sex, Lies and Death.avi\nFormat                           : AVI\nFormat/Info                      : Audio Video Interleave\nFile size                        : 1.18 GiB\nDuration                         : 1h 26mn\nOverall bit rate                 : 1 949 Kbps\n\nVideo:\n\nFormat                           : MPEG-4 Visual\nFormat profile                   : Simple@L3\nFormat settings, BVOP            : No\nFormat settings, QPel            : No\nFormat settings, GMC             : No warppoints\nFormat settings, Matrix          : Default (H.263)\nCodec ID                         : XVID\nCodec ID/Hint                    : XviD\nDuration                         : 1h 26mn\nBit rate                         : 1 745 Kbps\nWidth                            : 652 pixels\nHeight                           : 352 pixels\nDisplay aspect ratio             : 1.852\nFrame rate                       : 29.970 fps\nColor space                      : YUV\nChroma subsampling               : 4:2:0\nBit depth                        : 8 bits\nScan type                        : Progressive\nCompression mode                 : Lossy\nBits/(Pixel*Frame)               : 0.254\nStream size                      : 1.05 GiB (90%)\nWriting library                  : XviD 1.1.2 (UTC 2006-11-01)\n\nAudio:\n\nFormat                           : AC-3\nFormat/Info                      : Audio Coding 3\nMode extension                   : CM (complete main)\nCodec ID                         : 2000\nDuration                         : 1h 26mn\nBit rate mode                    : Constant\nBit rate                         : 192 Kbps\nChannel(s)                       : 2 channels\nChannel positions                : Front: L R\nSampling rate                    : 48.0 KHz\nBit depth                        : 16 bits\nCompression mode                 : Lossy\nStream size                      : 119 MiB (10%)\nAlignment                        : Aligned on interleaves\nInterleave, duration             : 32 ms (0.96 video frame)\nInterleave, preload duration     : 64 ms\n","torrent":{"xt":"urn:btih:374e86240829da961de01db097be9391dcd3b80d","amp;dn":"Sex%2C+Lies+and+Death+2011+DVDrip+English+%28srt%29subs+Klam","amp;tr":["udp%3A%2F%2Ftracker.openbittorrent.com%3A80","udp%3A%2F%2Fopen.demonii.com%3A1337","udp%3A%2F%2Ftracker.coppersurfer.tk%3A6969","udp%3A%2F%2Fexodus.desync.com%3A6969"],"infoHash":"374e86240829da961de01db097be9391dcd3b80d","infoHashBuffer":{"type":"Buffer","data":[55,78,134,36,8,41,218,150,29,224,29,176,151,190,147,145,220,211,184,13]},"announce":[],"urlList":[]}}